<svg width="22" height="19" viewBox="0 0 22 19" fill="none" xmlns="http://www.w3.org/2000/svg">
<path d="M21.1208 7.15784C21.0509 6.94823 20.8648 6.79547 20.6408 6.76382L14.3477 5.87364L11.5333 0.32269C11.4331 0.125085 11.2264 0 11 0C10.7736 0 10.5669 0.125085 10.4667 0.32269L7.65215 5.87364L1.35917 6.76382C1.1352 6.79547 0.949051 6.94823 0.879112 7.1578C0.809133 7.3674 0.867495 7.59747 1.02962 7.75127L5.58314 12.0721L4.50836 18.1732C4.47006 18.3905 4.5618 18.6099 4.74494 18.7395C4.84854 18.8127 4.97125 18.85 5.09455 18.85C5.18924 18.85 5.28423 18.828 5.37122 18.7835L11 15.9029L16.6285 18.7835C16.8289 18.886 17.0717 18.8689 17.2548 18.7394C17.4379 18.6099 17.5297 18.3904 17.4915 18.1732L16.4163 12.0721L20.9704 7.75123C21.1324 7.59747 21.1908 7.3674 21.1208 7.15784Z" fill="#FFCA56"/>
</svg>
